<svg xmlns="http://www.w3.org/2000/svg" xmlns:xlink="http://www.w3.org/1999/xlink" zoomAndPan="magnify" preserveAspectRatio="xMidYMid meet" version="1.0" viewBox="0.25 0 176.13 174.74"><defs><clipPath id="7523151f66"><path d="M 0.25 0 L 176.378906 0 L 176.378906 174.734375 L 0.25 174.734375 Z M 0.25 0 " clip-rule="nonzero"/></clipPath><clipPath id="ca877ba277"><path d="M 18.210938 12.347656 L 159.820312 12.347656 L 159.820312 155 L 18.210938 155 Z M 18.210938 12.347656 " clip-rule="nonzero"/></clipPath><clipPath id="e2e2f6b8c3"><path d="M 35.410156 12.347656 L 142.621094 12.347656 C 147.179688 12.347656 151.554688 14.160156 154.78125 17.386719 C 158.007812 20.613281 159.820312 24.988281 159.820312 29.550781 L 159.820312 137.71875 C 159.820312 142.28125 158.007812 146.65625 154.78125 149.882812 C 151.554688 153.109375 147.179688 154.921875 142.621094 154.921875 L 35.410156 154.921875 C 30.847656 154.921875 26.472656 153.109375 23.246094 149.882812 C 20.023438 146.65625 18.210938 142.28125 18.210938 137.71875 L 18.210938 29.550781 C 18.210938 24.988281 20.023438 20.613281 23.246094 17.386719 C 26.472656 14.160156 30.847656 12.347656 35.410156 12.347656 Z M 35.410156 12.347656 " clip-rule="nonzero"/></clipPath><clipPath id="eaecf9907b"><path d="M 17 89 L 106 89 L 106 138 L 17 138 Z M 17 89 " clip-rule="nonzero"/></clipPath><clipPath id="2193586263"><path d="M 118.824219 119.335938 L 32.382812 165.445312 L 16.191406 135.089844 L 102.632812 88.980469 Z M 118.824219 119.335938 " clip-rule="nonzero"/></clipPath><clipPath id="315640479f"><path d="M 118.824219 119.335938 L 32.382812 165.445312 L 16.191406 135.089844 L 102.632812 88.980469 Z M 118.824219 119.335938 " clip-rule="nonzero"/></clipPath><clipPath id="d1b705996c"><path d="M 28 94 L 108 94 L 108 139 L 28 139 Z M 28 94 " clip-rule="nonzero"/></clipPath><clipPath id="82f720a4de"><path d="M 118.824219 119.335938 L 32.382812 165.445312 L 16.191406 135.089844 L 102.632812 88.980469 Z M 118.824219 119.335938 " clip-rule="nonzero"/></clipPath><clipPath id="9c9e4f23f2"><path d="M 118.824219 119.335938 L 32.382812 165.445312 L 16.191406 135.089844 L 102.632812 88.980469 Z M 118.824219 119.335938 " clip-rule="nonzero"/></clipPath><clipPath id="b72f080c67"><path d="M 41 99 L 111 99 L 111 138 L 41 138 Z M 41 99 " clip-rule="nonzero"/></clipPath><clipPath id="87f0e60b4a"><path d="M 118.824219 119.335938 L 32.382812 165.445312 L 16.191406 135.089844 L 102.632812 88.980469 Z M 118.824219 119.335938 " clip-rule="nonzero"/></clipPath><clipPath id="ae409dd8be"><path d="M 118.824219 119.335938 L 32.382812 165.445312 L 16.191406 135.089844 L 102.632812 88.980469 Z M 118.824219 119.335938 " clip-rule="nonzero"/></clipPath><clipPath id="e3081d1a3c"><path d="M 52 104 L 114 104 L 114 139 L 52 139 Z M 52 104 " clip-rule="nonzero"/></clipPath><clipPath id="7a54f55c2a"><path d="M 118.824219 119.335938 L 32.382812 165.445312 L 16.191406 135.089844 L 102.632812 88.980469 Z M 118.824219 119.335938 " clip-rule="nonzero"/></clipPath><clipPath id="9e4b2f4ad8"><path d="M 118.824219 119.335938 L 32.382812 165.445312 L 16.191406 135.089844 L 102.632812 88.980469 Z M 118.824219 119.335938 " clip-rule="nonzero"/></clipPath><clipPath id="270be93a84"><path d="M 66 109 L 117 109 L 117 139 L 66 139 Z M 66 109 " clip-rule="nonzero"/></clipPath><clipPath id="fa8b771c73"><path d="M 118.824219 119.335938 L 32.382812 165.445312 L 16.191406 135.089844 L 102.632812 88.980469 Z M 118.824219 119.335938 " clip-rule="nonzero"/></clipPath><clipPath id="141298d4e7"><path d="M 118.824219 119.335938 L 32.382812 165.445312 L 16.191406 135.089844 L 102.632812 88.980469 Z M 118.824219 119.335938 " clip-rule="nonzero"/></clipPath><clipPath id="c5be40a32e"><path d="M 77 115 L 119 115 L 119 139 L 77 139 Z M 77 115 " clip-rule="nonzero"/></clipPath><clipPath id="faf08e7741"><path d="M 118.824219 119.335938 L 32.382812 165.445312 L 16.191406 135.089844 L 102.632812 88.980469 Z M 118.824219 119.335938 " clip-rule="nonzero"/></clipPath><clipPath id="08fd48f9b2"><path d="M 118.824219 119.335938 L 32.382812 165.445312 L 16.191406 135.089844 L 102.632812 88.980469 Z M 118.824219 119.335938 " clip-rule="nonzero"/></clipPath><clipPath id="a228204c81"><path d="M 86 53 L 141 53 L 141 116 L 86 116 Z M 86 53 " clip-rule="nonzero"/></clipPath><clipPath id="6981c8aaf2"><path d="M 86.339844 54.449219 L 138.953125 53.195312 L 140.410156 114.234375 L 87.796875 115.488281 Z M 86.339844 54.449219 " clip-rule="nonzero"/></clipPath><clipPath id="355dc70e2a"><path d="M 86.339844 54.449219 L 138.953125 53.195312 L 140.410156 114.234375 L 87.796875 115.488281 Z M 86.339844 54.449219 " clip-rule="nonzero"/></clipPath><clipPath id="6f9b69c4b1"><path d="M 23 26 L 151 26 L 151 118 L 23 118 Z M 23 26 " clip-rule="nonzero"/></clipPath><clipPath id="ed148e5172"><path d="M 7.839844 13.171875 L 173.070312 9.234375 L 176.136719 137.828125 L 10.90625 141.769531 Z M 7.839844 13.171875 " clip-rule="nonzero"/></clipPath><clipPath id="3f9c371183"><path d="M 7.839844 13.171875 L 173.070312 9.234375 L 176.136719 137.828125 L 10.90625 141.769531 Z M 7.839844 13.171875 " clip-rule="nonzero"/></clipPath><clipPath id="f5020306b8"><path d="M 7.839844 13.171875 L 173.070312 9.234375 L 176.136719 137.828125 L 10.90625 141.769531 Z M 7.839844 13.171875 " clip-rule="nonzero"/></clipPath></defs><g clip-path="url(#7523151f66)"><path fill="transparent" d="M 0.25 0 L 176.351562 0 L 176.351562 174.738281 L 0.25 174.738281 Z M 0.25 0 " fill-opacity="1" fill-rule="nonzero"/></g><g clip-path="url(#ca877ba277)"><g clip-path="url(#e2e2f6b8c3)"><path fill="transparent" d="M 18.210938 12.347656 L 159.820312 12.347656 L 159.820312 155.066406 L 18.210938 155.066406 Z M 18.210938 12.347656 " fill-opacity="1" fill-rule="nonzero"/></g></g><g clip-path="url(#eaecf9907b)"><g clip-path="url(#2193586263)"><g clip-path="url(#315640479f)"><path fill="#232323" d="M 105.042969 93.617188 L 17.445312 137.570312 L 102.738281 89.296875 Z M 105.042969 93.617188 " fill-opacity="1" fill-rule="nonzero"/></g></g></g><g clip-path="url(#d1b705996c)"><g clip-path="url(#82f720a4de)"><g clip-path="url(#9c9e4f23f2)"><path fill="#232323" d="M 107.789062 98.765625 L 28.398438 138.339844 L 105.484375 94.445312 Z M 107.789062 98.765625 " fill-opacity="1" fill-rule="nonzero"/></g></g></g><g clip-path="url(#b72f080c67)"><g clip-path="url(#87f0e60b4a)"><g clip-path="url(#ae409dd8be)"><path fill="#232323" d="M 110.535156 103.914062 L 41.441406 137.996094 L 108.230469 99.59375 Z M 110.535156 103.914062 " fill-opacity="1" fill-rule="nonzero"/></g></g></g><g clip-path="url(#e3081d1a3c)"><g clip-path="url(#7a54f55c2a)"><g clip-path="url(#9e4b2f4ad8)"><path fill="#232323" d="M 113.28125 109.0625 L 52.519531 138.699219 L 110.976562 104.742188 Z M 113.28125 109.0625 " fill-opacity="1" fill-rule="nonzero"/></g></g></g><g clip-path="url(#270be93a84)"><g clip-path="url(#fa8b771c73)"><g clip-path="url(#141298d4e7)"><path fill="#232323" d="M 116.027344 114.210938 L 66.007812 138.117188 L 113.722656 109.890625 Z M 116.027344 114.210938 " fill-opacity="1" fill-rule="nonzero"/></g></g></g><g clip-path="url(#c5be40a32e)"><g clip-path="url(#faf08e7741)"><g clip-path="url(#08fd48f9b2)"><path fill="#232323" d="M 118.773438 119.359375 L 77.933594 138.367188 L 116.46875 115.039062 Z M 118.773438 119.359375 " fill-opacity="1" fill-rule="nonzero"/></g></g></g><g clip-path="url(#a228204c81)"><g clip-path="url(#6981c8aaf2)"><g clip-path="url(#355dc70e2a)"><path fill="transparent" d="M 86.339844 54.449219 L 138.953125 53.195312 L 140.410156 114.234375 L 87.796875 115.488281 Z M 86.339844 54.449219 " fill-opacity="1" fill-rule="nonzero"/></g></g></g><g clip-path="url(#6f9b69c4b1)"><g clip-path="url(#ed148e5172)"><g clip-path="url(#3f9c371183)"><g clip-path="url(#f5020306b8)"><path fill="#000000" d="M 29 27.449219 C 24.75 35.75 31.453125 49.675781 42.433594 55.359375 C 45.304688 56.847656 44.582031 57.203125 39.664062 56.722656 C 34.660156 56.234375 31.074219 54.535156 26.617188 50.527344 L 23.21875 47.472656 L 23.257812 49.105469 C 23.464844 57.746094 34.300781 67.914062 46.175781 70.613281 C 48.535156 71.152344 48.671875 71.578125 46.605469 71.972656 C 40.699219 73.097656 33.3125 70.890625 28.082031 66.433594 C 25.375 64.128906 25.171875 64.417969 26.972656 68.011719 C 31.105469 76.25 41.464844 80.84375 56.570312 81.132812 C 57.9375 81.160156 54.09375 82.371094 51.070312 82.867188 C 45.246094 83.820312 39.730469 83.40625 36.371094 81.765625 C 34.507812 80.855469 35.347656 82.15625 38.269531 84.707031 C 44.019531 89.726562 56.015625 91.902344 66.742188 89.863281 C 68.496094 89.527344 68.539062 89.542969 67.574219 90.136719 C 64.339844 92.128906 60.097656 93.191406 54.785156 93.332031 C 48.59375 93.5 48.535156 93.867188 54.300781 96.464844 C 60.640625 99.316406 72.035156 99.949219 78.796875 97.824219 C 81.34375 97.023438 81.507812 97.15625 79.429688 98.320312 L 77.902344 99.175781 L 80.890625 99.121094 L 83.882812 99.070312 L 84.105469 108.375 L 84.328125 117.675781 L 103.816406 117.210938 L 123.308594 116.746094 L 132.585938 113.398438 C 137.691406 111.558594 142.089844 109.765625 142.363281 109.421875 C 142.722656 108.96875 142.84375 105.363281 142.808594 96.527344 L 142.757812 84.265625 L 145.738281 82.890625 C 149.886719 80.972656 149.847656 81.148438 146.945312 77.476562 C 143.992188 73.738281 143.972656 73.671875 145.542969 72.445312 C 147.078125 71.253906 148.59375 69.148438 149.382812 67.117188 L 150.011719 65.507812 L 148.710938 66.65625 C 146.648438 68.484375 144.449219 69.492188 142.421875 69.539062 C 139.949219 69.597656 140.042969 69.234375 143.125 66.851562 C 147.222656 63.679688 149.703125 59.84375 150.550781 55.351562 C 151.179688 52.042969 150.84375 51.679688 149.257812 53.941406 C 147.707031 56.15625 144.953125 58.144531 142.769531 58.632812 L 141.339844 58.953125 L 143.046875 56.910156 C 146.871094 52.339844 149.394531 44.511719 148.734375 39.277344 C 148.285156 35.714844 147.726562 34.742188 147.410156 36.957031 C 146.792969 41.246094 144.199219 47.3125 141.445312 50.910156 L 140.34375 52.351562 L 141.472656 52.039062 C 143.355469 51.523438 142.839844 52.375 138.394531 57.140625 L 134.167969 61.667969 L 133.125 60.453125 C 131.71875 58.816406 131.75 58.664062 133.875 56.488281 C 140.320312 49.898438 143.855469 43.644531 143.367188 39.679688 C 142.847656 35.414062 142.675781 35.28125 141.398438 38.164062 C 139.433594 42.601562 136.085938 47.570312 132.464844 51.417969 L 128.96875 55.136719 L 127.429688 53.539062 C 126.582031 52.65625 125.164062 51.121094 124.285156 50.125 C 122.78125 48.429688 122.625 48.351562 121.78125 48.921875 C 118.34375 51.238281 111.167969 55.808594 104.414062 59.996094 C 97.574219 64.230469 96.109375 65.324219 93.789062 67.9375 L 91.09375 70.972656 L 90.964844 66.273438 C 90.753906 58.84375 90.109375 58.164062 80.296875 55.058594 C 65.925781 50.507812 54.070312 43.984375 46.007812 36.191406 L 42.355469 32.664062 L 41.136719 35.308594 C 39.539062 38.765625 39.417969 38.429688 43.40625 41.621094 C 53.3125 49.542969 64.394531 55.203125 78.816406 59.710938 L 85.261719 61.726562 L 85.457031 69.929688 L 85.652344 78.136719 L 82.535156 82.421875 C 78.859375 87.46875 79.4375 87.160156 74.734375 86.605469 C 72.601562 86.355469 66.910156 86.257812 61.535156 86.378906 C 56.335938 86.492188 52.195312 86.46875 52.332031 86.324219 C 53.902344 84.671875 65.117188 82.582031 73.613281 82.359375 C 75.789062 82.304688 77.683594 82.132812 77.832031 81.980469 C 78.679688 81.085938 64.695312 77.992188 53.632812 76.628906 C 50.558594 76.25 47.484375 75.796875 46.796875 75.621094 L 45.550781 75.300781 L 47.1875 74.71875 C 48.089844 74.402344 49.3125 73.78125 49.902344 73.34375 C 51.109375 72.453125 52.066406 72.535156 70.035156 75.054688 C 74.210938 75.640625 77.707031 76.035156 77.808594 75.929688 C 78.359375 75.347656 63.648438 69.683594 53.808594 66.6875 C 47.746094 64.839844 41.664062 62.832031 40.285156 62.222656 L 37.785156 61.113281 L 39.226562 60.960938 C 40.015625 60.875 41.867188 60.570312 43.335938 60.277344 C 46.28125 59.695312 48.390625 60.207031 70.878906 66.957031 C 75.417969 68.320312 79.308594 69.371094 79.519531 69.296875 C 80.164062 69.0625 70.726562 63.988281 59.433594 58.5 C 47.78125 52.839844 43.949219 50.726562 40.867188 48.273438 C 38.382812 46.292969 38.457031 46.195312 41.734375 47.132812 C 45.746094 48.28125 45.726562 48.136719 41.328125 43.921875 C 35.621094 38.449219 31.425781 32.613281 30.007812 28.171875 C 29.5 26.578125 29.460938 26.550781 29 27.449219 M 122.769531 51.765625 C 123.453125 52.976562 106.859375 72.871094 105.132812 72.910156 C 102.929688 72.964844 103.402344 72.152344 110.335938 64 C 121.636719 50.703125 121.980469 50.367188 122.769531 51.765625 M 126.667969 56.367188 C 137.457031 68.691406 145.652344 78.980469 144.707031 79 C 143.304688 79.035156 142.292969 78.011719 133.804688 67.992188 C 124.058594 56.484375 123.90625 56.285156 124.242188 55.339844 C 124.609375 54.308594 125.023438 54.484375 126.667969 56.367188 M 132.019531 70.949219 L 139.128906 79.242188 L 139.769531 106.085938 L 134.710938 105.90625 C 131.925781 105.808594 125.371094 105.53125 120.144531 105.285156 L 110.640625 104.84375 L 109.6875 73.9375 L 111.597656 71.570312 C 112.648438 70.269531 115.386719 66.945312 117.679688 64.183594 L 121.855469 59.164062 L 123.378906 60.910156 C 124.21875 61.871094 128.109375 66.386719 132.019531 70.949219 M 142.046875 61.6875 C 143.871094 61.644531 143.523438 62.332031 140.769531 64.210938 C 137.808594 66.230469 137.867188 66.222656 136.9375 64.867188 C 136.320312 63.972656 136.292969 63.710938 136.746094 63.238281 C 137.644531 62.3125 139.695312 61.316406 140.289062 61.523438 C 140.59375 61.628906 141.382812 61.703125 142.046875 61.6875 M 120.765625 67.242188 C 119.667969 68.398438 121.089844 70.699219 122.6875 70.355469 C 123.851562 70.105469 123.847656 68.140625 122.679688 67.363281 C 121.535156 66.597656 121.386719 66.589844 120.765625 67.242188 M 118.929688 80.183594 L 119 83.230469 L 120.554688 83.449219 C 121.40625 83.570312 122.617188 83.660156 123.242188 83.644531 L 124.375 83.625 L 124.304688 80.578125 L 124.230469 77.53125 L 122.675781 77.308594 C 121.824219 77.1875 120.613281 77.101562 119.988281 77.113281 L 118.855469 77.136719 L 118.929688 80.183594 M 126.371094 80.832031 C 126.445312 83.828125 126.496094 83.988281 127.375 83.96875 C 127.886719 83.960938 129.003906 84.050781 129.855469 84.171875 L 131.410156 84.390625 L 131.335938 81.238281 C 131.265625 78.242188 131.210938 78.082031 130.332031 78.097656 C 129.820312 78.109375 128.703125 78.015625 127.851562 77.898438 L 126.296875 77.675781 L 126.371094 80.832031 M 104.910156 80.769531 C 104.921875 81.261719 103.390625 82.101562 94.945312 86.25 C 88.226562 89.550781 87.378906 89.847656 87.355469 88.929688 C 87.347656 88.632812 89.042969 87.574219 91.117188 86.582031 C 93.195312 85.585938 96.914062 83.792969 99.378906 82.597656 C 103.988281 80.363281 104.890625 80.066406 104.910156 80.769531 M 104.515625 86.242188 C 104.253906 86.941406 88.003906 94.65625 87.601562 94.269531 C 86.824219 93.53125 88.726562 92.304688 96.054688 88.828125 C 103.421875 85.332031 105.042969 84.839844 104.515625 86.242188 M 119.125 88.449219 L 119.199219 91.496094 L 121.117188 91.710938 C 124.738281 92.121094 124.582031 92.257812 124.5 88.847656 L 124.425781 85.800781 L 122.875 85.578125 C 122.019531 85.460938 120.8125 85.371094 120.1875 85.382812 L 119.050781 85.40625 L 119.125 88.449219 M 126.652344 89.050781 L 126.847656 92.046875 L 131.597656 92.179688 L 131.527344 89.316406 L 131.460938 86.453125 L 130.164062 86.226562 C 129.453125 86.101562 128.328125 86.011719 127.664062 86.027344 L 126.460938 86.054688 L 126.652344 89.050781 M 78.273438 88.835938 C 78.277344 89.050781 78.101562 89.34375 77.875 89.488281 C 76.835938 90.171875 77.75 90.375 80.726562 90.132812 C 84.234375 89.84375 84.757812 90.085938 84.363281 91.824219 C 84.105469 92.980469 82.457031 93.617188 78.605469 94.046875 L 76.132812 94.328125 L 77.699219 93.6875 C 79.699219 92.871094 80.164062 92.367188 78.574219 92.738281 C 76.382812 93.25 67.980469 94.484375 66.464844 94.515625 C 65.21875 94.542969 65.648438 94.261719 69.285156 92.660156 C 71.644531 91.621094 74.488281 90.261719 75.609375 89.636719 C 77.859375 88.382812 78.261719 88.261719 78.273438 88.835938 M 104.742188 91.070312 C 104.761719 91.914062 88.789062 99.632812 87.992188 99.167969 C 86.976562 98.570312 87.832031 97.714844 90.933594 96.230469 C 103.90625 90.019531 104.710938 89.71875 104.742188 91.070312 M 104.769531 96.597656 C 104.574219 97.140625 89.238281 104.320312 88.21875 104.34375 C 87.945312 104.351562 87.714844 104 87.703125 103.566406 C 87.691406 102.945312 88.90625 102.230469 93.503906 100.160156 C 96.707031 98.722656 100.425781 97.046875 101.773438 96.441406 C 104.15625 95.367188 105.1875 95.421875 104.769531 96.597656 M 104.917969 101.496094 C 104.8125 102.296875 90.0625 109.253906 88.359375 109.304688 C 87.148438 109.339844 87.855469 107.730469 89.335938 107.078125 C 105.0625 100.117188 105.09375 100.105469 104.917969 101.496094 M 104.894531 105.644531 C 105.285156 106.777344 105.359375 106.726562 98.996094 109.78125 C 89.457031 114.359375 87.824219 114.898438 88.015625 113.417969 C 88.101562 112.738281 89.792969 111.726562 95.875 108.71875 C 104.539062 104.429688 104.484375 104.449219 104.894531 105.644531 " fill-opacity="1" fill-rule="evenodd"/></g></g></g></g><path stroke-linecap="butt" transform="matrix(0.682742, -0.30524, 0.30524, 0.682742, 108.537087, 120.639065)" fill="none" stroke-linejoin="miter" d="M 0.00141351 1.99969 L 37.597328 1.998534 " stroke="#000000" stroke-width="4" stroke-opacity="1" stroke-miterlimit="4"/><path stroke-linecap="butt" transform="matrix(0.691231, -0.285496, 0.285496, 0.691231, 103.588414, 124.080833)" fill="none" stroke-linejoin="miter" d="M 0.000646846 1.002253 L 55.394256 0.999721 " stroke="#000000" stroke-width="2" stroke-opacity="1" stroke-miterlimit="4"/></svg>